<svg width="277" height="218" fill="none" xmlns="http://www.w3.org/2000/svg"><path d="M228.891-14.554c2.797-1.513 5.417-3.529 7.152-6.238 1.515-2.356 3.241-5.92.987-8.353-1.344-1.458-3.026-1.632-4.891-1.335-1.833.29-3.64.721-5.436 1.195-2.166.57-4.326 1.172-6.485 1.774 3.606-1.536 7.102-3.325 10.506-5.257a142.801 142.801 0 005.361-3.216c1.657-1.048 3.311-2.207 4.488-3.8 2.384-3.227 1.951-7.723-1.26-10.227-1.865-1.456-4.229-2.118-6.604-2.3 1.131-.916 2.173-1.93 3.065-3.106 1.702-2.246 2.839-4.877 3.617-7.577.673-2.34 1.535-5.114.978-7.557-.633-2.755-3.065-5.097-5.987-4.981-2.64.107-5.415 1.52-7.687 2.784a36.317 36.317 0 00-3.393 2.179c1.146-1.828 2.195-3.72 3.053-5.71 2.057-4.762 3.084-10.611 1.918-15.748-.561-2.467-1.62-4.747-3.528-6.457-2.016-1.816-4.791-2.729-7.478-2.768-2.692-.041-5.417.734-7.451 2.564-1.971 1.77-3.365 4.047-4.512 6.417a34.814 34.814 0 00-1.688 4.102 41.209 41.209 0 00-.739-4.518c-.5-2.236-1.094-4.578-2.1-6.644-.975-2.002-2.418-3.906-4.619-4.606-2.137-.68-4.4-.292-6.342.771-4.265 2.328-6.082 6.843-6.983 11.375a29.037 29.037 0 00-.513 3.841c-.078-.158-.146-.32-.233-.475-1.692-3.135-4.198-5.744-7.39-7.366-2.795-1.421-6.428-1.945-9.219-.245-2.971 1.812-3.827 5.754-4.031 8.967a51.898 51.898 0 00-.033 6.31c-.972-1.537-2.046-3.01-3.32-4.275-2.134-2.117-5.296-3.051-8.22-3.435-1.294-.174-2.661-.13-3.866.432-1.28.603-2.267 1.677-2.999 2.87-1.624 2.64-2.146 5.745-2.37 8.788-.14 1.854-.165 3.714-.181 5.57-.01.833.079 1.671.063 2.5-1.58.349-2.994 1.26-3.651 2.838-1.651 3.948.314 8.677 2.458 12.002 2.682 4.16 6.471 7.238 10.284 10.312.937.76 1.874 1.52 2.806 2.291-2.375-1.377-4.823-2.603-7.406-3.572-1.781-.672-3.62-1.362-5.522-1.587-1.65-.197-3.467-.062-4.575 1.341-1.891 2.377-.363 6.057 1.085 8.235 2.056 3.088 5.269 5.623 8.275 7.722 3.441 2.414 7.171 4.432 11.001 6.17 8.62 3.932 17.963 6.469 27.36 7.686.005 2.314.305 4.47 1.412 6.558.524.983 1.139 1.911 1.856 2.722.062.078.132.152.202.227.029.034.058.07.089.097.192.201.388.39.602.57l.095.086c.06.048.12.096.182.137.635.511 1.338.95 2.137 1.267 1.338.53 2.729.717 4.078.512.627 3.933 2.268 7.59 3.449 11.375 1.333 4.263 2.589 8.552 3.99 12.793a413.937 413.937 0 007.57 20.967c-2.421-2.872-5.056-5.573-7.875-8.002-5.531-4.783-11.83-8.593-18.276-11.998-6.538-3.445-13.244-6.706-20.274-9.021-4.107-1.353-8.281-2.2-12.504-3.067-1.996-.413-4.017-.786-5.966-1.391-1.949-.606-3.931-.815-5.96-.581-1.418.161-1.807 1.664-1.199 2.758 1.051 1.895 3.587 2.888 5.44 3.781 2.566 1.241 4.982 2.828 7.464 4.23 2.916 1.65 5.857 3.243 8.693 5.027a78.502 78.502 0 018.132 5.877c10.461 8.591 19.857 18.437 30.606 26.685 6.036 4.634 12.71 8.373 19.629 11.514.636.29 1.2.14 1.6-.207.499.452.992.901 1.508 1.331.517.43 1.05.838 1.625 1.183l.255.155c3.329 6.159 6.988 12.13 11.082 17.828 7.722 10.762 16.179 20.947 24.869 30.933a424.63 424.63 0 00-16.174-13.108c-10.584-8.175-21.33-16.246-32.474-23.637-5.577-3.702-11.291-7.222-17.178-10.412-5.983-3.24-12.134-6.194-18.309-9.04a485.797 485.797 0 00-14.894-6.587 16.447 16.447 0 01-.456-.316c-.72-.533-1.319-1.211-1.954-1.84-1.197-1.173-2.742-1.78-3.992-2.865-1.341-1.178-2.554-2.55-3.729-3.89-2.348-2.671-4.357-5.614-6.357-8.546-2.144-3.155-4.474-6.186-6.534-9.4-1.903-2.97-3.692-6.016-5.885-8.789-2.276-2.868-5.02-5.353-7.797-7.727-2.83-2.42-5.78-4.7-8.757-6.933-3.313-2.49-6.644-4.937-9.858-7.552-1.661-1.353-3.31-2.731-5.028-4.02-1.69-1.271-3.455-2.45-5.038-3.864-.578-.523-1.542-.429-2.077.094-.592.587-.614 1.377-.198 2.071 1.29 2.139 2.079 4.536 3.22 6.75 1.254 2.438 2.626 4.825 3.968 7.213 2.611 4.643 5.309 9.287 8.511 13.548 3.124 4.154 6.704 7.949 10.417 11.574 3.741 3.644 7.569 7.239 11.64 10.513 2.181 1.755 4.43 3.423 6.713 5.047-6.173-2.127-12.445-3.944-18.862-5.157-6.621-1.25-13.281-2.275-19.927-3.367-.716-.121-1.43-.233-2.143-.345a6.948 6.948 0 00-.729-1.205c.479-2.683.522-5.496.53-8.142a47.49 47.49 0 00-1.403-11.447c-.452-1.84-.953-3.687-1.601-5.466-.633-1.728-1.51-3.62-2.963-4.81-.695-.574-1.571-.918-2.453-1.081-1.376-.254-2.235.81-2.901 1.871-1.117 1.76-1.382 3.868-1.593 5.904-.375 3.66.024 7.34.968 10.899-6.867-6.362-15.073-11.28-23.66-14.933-4.362-1.86-8.868-3.46-13.497-4.505-4.743-1.071-9.503-1.344-14.355-1.237-5.357.121-10.604.664-15.776 2.099-2.492.692-4.949 1.524-7.302 2.606-1.055.488-2.092 1.02-3.15 1.515-1.095.514-2.222 1.102-2.945 2.108-.343.468-.558 1.181-.266 1.741 2.874 5.535 7.371 9.934 12.11 13.895 5.104 4.267 10.445 8.174 16.444 11.09 6.3 3.033 13.18 5.1 20.063 6.457 6.706 1.324 13.623 1.874 20.441 1.324 3.75-.3 7.537-.89 11.177-1.832a27.122 27.122 0 003.487-1.147c-3.496 2.802-7.097 5.675-9.497 9.51-1.288 2.053-2.467 4.46-2.772 6.896-.149 1.22.041 2.366.274 3.531.25 1.261 1.07 2.087 2.266 2.387.866.435 1.785.563 2.754.17 1.007-.413 2.045-.879 2.976-1.487 1.85-1.22 3.392-3 4.692-4.776 2.914-3.972 4.823-8.564 6.74-13.072a59.465 59.465 0 001.283-3.221c.286-.793.623-1.636.84-2.489 5.324 1.2 10.75 2.048 16.116 3.017 6.502 1.169 12.912 2.532 19.215 4.532 9.106 2.896 18.059 6.363 26.885 10.09.006.004.012.006.015.015 1.67 1.012 3.37 1.972 5.086 2.894-.964-.023-1.931-.04-2.887-.067-5.656-.148-11.303-.219-16.933.43-5.62.645-11.231 1.94-16.359 4.384-5.425 2.586-10.554 5.822-15.145 9.71a70.08 70.08 0 00-7.355 7.229c-2.456 2.799-4.614 5.91-5.82 9.458-.35 1.022.162 1.986 1.236 2.21 1.363.286 2.785-.153 4.048-.631 1.36-.517 2.694-1.059 4.065-1.549 3.248-1.17 6.525-2.27 9.816-3.319 6.372-2.035 12.851-3.693 19.346-5.271 6.576-1.595 13.127-3.2 19.611-5.157a419.088 419.088 0 009.638-3.044c3.074-1.004 6.251-1.89 9.232-3.154 1.293-.546 2.545-1.102 3.978-1.044 1.502.066 3.009.34 4.475.677 1.605.367 3.138 1.07 4.625 1.761 1.608.75 3.254 1.379 4.872 2.09.499.216.944.153 1.302-.065 3.223 1.804 6.41 3.69 9.54 5.674 11.208 7.126 21.944 15.001 32.629 22.876a479.563 479.563 0 019.734 7.366c-.251-.131-.499-.269-.75-.4-8.125-4.208-16.874-7.168-25.791-9.168-8.044-1.802-16.32-2.818-24.566-2.875-7.641-.05-15.288.91-22.575 3.281a55.485 55.485 0 00-12.384 5.82c-4.11 2.578-7.945 5.57-12.042 8.169-.638.405-.852 1.353-.588 2.026.295.752 1.034 1.11 1.809 1.08 4.097-.141 8.173-.636 12.256-.996 3.993-.355 8.002-.864 12.015-.88 8.119-.021 16.025 2.889 23.455 5.885 7.604 3.064 15.081 6.272 23.159 7.877 7.649 1.513 15.657 2.236 23.453 1.76a97.238 97.238 0 0012.619-1.594c1.025-.2 2.021-.486 3.012-.811.955-.311 1.948-.437 2.943-.569 1.554-.205 3.124-.344 4.694-.351.412.671 1.232 1.094 1.982.869.579.538 1.167 1.073 1.746 1.611.171.162.359.251.533.29 9.976 11.206 19.961 22.408 28.885 34.485a411.531 411.531 0 014.058 5.609c-.201-.161-.399-.328-.6-.488-6.914-5.311-15.312-8.522-23.821-10.197-8.826-1.739-17.785-1.504-26.704-.686a203.385 203.385 0 00-14.162 1.824c-4.563.739-9.117 1.525-13.588 2.728-5.018 1.347-9.715 3.421-14.223 5.988a107.17 107.17 0 00-6.227 3.859c-1.997 1.326-3.93 2.855-4.968 5.075-.406.865.203 2.076 1.197 2.149 3.927.284 7.855.569 11.762 1.035 3.786.458 7.553 1.025 11.36 1.301 7.677.557 15.379-.225 23.064.094 7.736.319 15.425 1.219 23.157 1.58 7.684.355 15.424.162 23.077 1.009 2.11.236 4.223.531 6.318.884 2.056.344 4.081.858 6.135 1.222 1.984.357 3.912.505 5.903.139.778-.139 1.544-.334 2.329-.404.168-.015.474-.028.654-.038.166.226.387.425.682.553a1.7 1.7 0 00.744.126c4.322 6.538 8.582 13.116 12.926 19.635a874.302 874.302 0 003.555 5.302c1.267 1.872 4.082-.206 2.828-2.072-7.186-10.631-14.073-21.462-21.25-32.096-.119-1.512-.096-3.065-.249-4.467-.507-4.645-1.335-9.261-1.633-13.932-.288-4.528-.451-9.038-1.056-13.542-.604-4.525-1.503-9.011-2.743-13.402-5.035-17.803-14.316-34.027-20.508-51.409-3.516-9.871-5.425-20.189-8.58-30.167-.366-1.165-1.928-1.228-2.646-.402-.984 1.135-.935 2.91-1.162 4.322-.313 1.933-.48 3.886-.639 5.834-.304 3.75-.564 7.496-.681 11.253-.229 7.569.028 15.15.781 22.683.736 7.319 1.93 14.597 3.731 21.726 1.789 7.089 4.257 13.98 7.081 20.711a198.298 198.298 0 003.418 7.672c-5.087-5.939-10.269-11.795-15.456-17.639-3.969-4.47-7.937-8.939-11.868-13.444-.671-1.32-1.224-2.727-1.7-4.108-.589-1.679-.852-3.466-.847-5.247.012-4.053 1.18-8.138 2.053-12.066 1.014-4.555 1.866-9.093 2.334-13.74.446-4.429.709-8.959.225-13.388-.47-4.328-1.564-8.583-2.864-12.736-1.351-4.308-3.032-8.495-4.733-12.668-1.677-4.112-3.275-8.255-4.863-12.402-1.784-4.642-3.724-9.192-6.113-13.554-2.425-4.43-5.145-8.687-7.847-12.951-.838-1.325-2.908-.64-3.125.784-.27 1.783-.061 3.576.163 5.353.223 1.778.467 3.542.738 5.31.542 3.539.898 7.032.805 10.616-.1 3.735-.537 7.434-.779 11.159-.249 3.773-.133 7.566-.017 11.343.223 7.186-.614 14.35.421 21.506 1.018 7.076 3.13 14.077 5.612 20.77.281.752.573 1.496.871 2.242-.617-.804-1.246-1.599-1.858-2.415-5.019-6.636-9.708-13.474-13.799-20.727-4.042-7.165-7.56-14.623-10.756-22.199-3.186-7.533-6.041-15.202-8.748-22.925-2.846-8.112-5.115-16.422-8.023-24.51-.677-1.88-1.334-3.772-1.733-5.736-.02-.104-.056-.207-.088-.302a8.701 8.701 0 003.113-4.025c.735-1.926.86-3.999.294-5.984a9.885 9.885 0 00-.266-.82c.469.219.947.434 1.427.628a39.754 39.754 0 009.558 2.666c6.276.932 12.836.013 18.433-3.02zM24.833 24.657c-3.106-1.615-6.215-3.194-9.405-4.633a123.086 123.086 0 01-5.86-2.797l.044-.003c2.784-.117 5.584.065 8.356.243 6.115.392 12.186 1.154 18.221 2.2 6.233 1.082 12.401 2.429 18.397 4.478 5.847 2 11.656 4.174 17.447 6.34 4.353 1.628 8.716 3.254 13.144 4.644-2.349.145-4.693.38-7.045.466-6.083.209-12.198.44-18.284.032-6.122-.41-12.097-1.643-17.906-3.633a126.39 126.39 0 01-17.109-7.337zm60.4-.085c-.626-2.451-1.048-5.07-1.028-7.608.008-1.317.18-2.607.392-3.902.171-1.033.377-1.86.863-2.64.286.183.51.442.804.863.605.865.998 1.85 1.35 2.84a47.859 47.859 0 011.667 5.956c.915 4.331 1.164 8.695.895 13.105-.02.3-.038.608-.054.916-.746-.846-1.512-1.729-2.235-2.527-1.117-2.232-2.031-4.56-2.654-7.003zM4.708 14.52c.246-.143.513-.268.78-.394.77-.355 1.523-.74 2.286-1.112a42.222 42.222 0 015.532-2.21 51.318 51.318 0 0111.352-2.32c7.938-.716 15.858-.398 23.51 1.968 7.627 2.355 15.054 5.76 21.745 10.116 3.382 2.197 6.606 4.655 9.579 7.386 1.784 1.642 3.465 3.386 5.098 5.174-3.415-1.11-6.79-2.344-10.155-3.601a1137.684 1137.684 0 00-17.41-6.375c-5.825-2.07-11.782-3.582-17.858-4.72-6.043-1.131-12.123-2.007-18.247-2.497-3.297-.268-6.622-.488-9.936-.483-1.378.002-2.908.202-4.382.156-.165-.094-.332-.181-.494-.28-.342-.208-.647-.128-.856.082a31.23 31.23 0 01-.544-.89zm80.136 40.547c-.952 1.751-2.043 3.419-3.329 4.944-1.02 1.215-2.17 2.431-3.604 3.15-.41.203-.981.286-1.34.555a1.118 1.118 0 01-.093.062 18.082 18.082 0 00-.41-.12c-.051-.234-.192-.552-.216-.665-.314-1.553.248-3.062.853-4.472 1.57-3.676 4.382-6.489 7.402-9.02 1.651-1.388 3.58-2.692 5.215-4.226-1.31 3.333-2.772 6.66-4.478 9.792zm-3.36-13.046c-3.034.948-6.241 1.417-9.387 1.81-6.43.806-12.948.482-19.332-.555-6.587-1.075-13.132-2.871-19.264-5.515-5.992-2.577-11.288-6.134-16.346-10.22-3.615-2.922-7.32-6.044-10.212-9.752 4.875 2.72 10.098 4.758 15.041 7.34 5.497 2.874 11.124 5.468 16.935 7.635 5.655 2.107 11.495 3.67 17.504 4.324 5.923.646 11.895.543 17.838.368 3.411-.094 6.796-.28 10.199-.525.77-.054 1.548-.09 2.32-.129.438.727.892 1.452 1.35 2.166-2.197 1.062-4.297 2.32-6.645 3.053zm50.159-.018c-4.159-3.254-8.027-6.844-11.826-10.506-3.64-3.506-7.152-7.153-10.276-11.139-3.27-4.173-5.989-8.752-8.572-13.375A299.856 299.856 0 0196.684-.92c-.244-.466-.465-.951-.683-1.427 1.18.924 2.35 1.858 3.51 2.81a275.532 275.532 0 008.867 6.952c2.974 2.24 5.946 4.486 8.822 6.852 2.79 2.292 5.645 4.656 8.031 7.373 2.357 2.683 4.246 5.735 6.135 8.751 2.009 3.214 4.244 6.262 6.41 9.369 1.393 2 2.744 4.032 4.181 6a197.122 197.122 0 00-7.078-7.172c-2.253-2.183-4.579-4.295-6.817-6.494-2.261-2.23-4.358-4.617-6.412-7.036-2.279-2.678-4.496-5.396-6.941-7.927-.602-.621-1.647.384-1.1 1.048 3.967 4.792 7.879 9.677 12.223 14.142 4.373 4.499 9.12 8.625 13.471 13.158a122.38 122.38 0 015.025 5.56c-4.307-2.9-8.591-5.834-12.685-9.037zm26.195 33.579a307.096 307.096 0 01-19.386 5.43c-6.619 1.627-13.238 3.254-19.758 5.225a265.166 265.166 0 00-11.081 3.65c-1.728.605-3.469 1.206-5.163 1.9-.445.18-.926.411-1.421.607.96-1.872 2.19-3.59 3.561-5.209a62.248 62.248 0 016.119-6.254c4.211-3.738 8.892-6.971 13.905-9.539 4.844-2.48 9.926-4.026 15.302-4.814 5.259-.773 10.607-.942 15.917-.805 3.086.08 6.188.071 9.267.302 1.759.134 3.602.341 5.343.82 1.242.546 2.486 1.088 3.736 1.616a1.68 1.68 0 001.63-.193c.676.316 1.355.64 2.028.962-.575-.008-1.142.017-1.696.128-.257.05-.508.124-.764.19-.282.009-.568.01-.848.012-1.368.014-2.691.224-4.049.367-2.963.311-5.942.373-8.917.46-2.939.086-5.888.198-8.794.68-3.031.502-6.02 1.242-8.984 2.045-3.364.914-6.703 1.92-10.074 2.817-1.086.29-.438 1.916.64 1.628 5.912-1.567 11.738-3.51 17.765-4.602 5.655-1.026 11.423-.712 17.129-1.165-.598.195-1.201.387-1.793.585a477.583 477.583 0 01-9.614 3.157zm147.4 105.001c-1.057-.467-2.176-.792-3.285-1.106-2.37-.664-4.667-1.53-7.01-2.292-2.278-.741-4.609-1.278-6.967-1.702-4.703-.841-9.475-1.574-14.245-1.843-4.464-.246-8.945-.133-13.411.163-5.182.344-10.336.943-15.498 1.494-.96.103-.783 1.582.175 1.484 8.713-.899 17.476-1.946 26.249-1.654 4.441.149 8.805.777 13.189 1.458 2.349.361 4.702.761 7.008 1.338 2.339.584 4.581 1.442 6.852 2.216 2.369.803 5.149 1.182 7.281 2.564.925.601 1.742 1.301 2.791 1.684.312.429.606.865.9 1.301.176.267.356.544.533.811.02.038.031.08.051.118a.748.748 0 00.165.211c.304.463.618.922.934 1.374-1.237.233-2.445.434-3.735.284-1.829-.208-3.627-.623-5.428-.995a86.682 86.682 0 00-5.648-.96c-7.723-1.075-15.509-.976-23.284-1.239-7.748-.258-15.462-1.051-23.209-1.463-3.896-.204-7.798-.294-11.699-.2-3.791.09-7.591.323-11.388.243-4.314-.086-8.601-.637-12.878-1.146-3.504-.416-7.025-.656-10.534-.993.841-.757 1.825-1.385 2.731-1.968a128.348 128.348 0 015.56-3.386c3.911-2.239 8.021-4.077 12.351-5.342 4.256-1.245 8.638-1.989 13-2.704 4.675-.763 9.371-1.421 14.087-1.887 8.766-.87 17.526-1.272 26.242.265 8.245 1.458 16.33 4.445 23.117 9.422a37.149 37.149 0 015.003 4.45zm-23.647-57.11c-3.872-13.806-5.365-28.381-5.258-42.694.029-4.11.215-8.227.531-12.323.136-1.746.258-3.491.436-5.233 1.825 7.023 3.371 14.116 5.632 21.012 2.885 8.798 6.643 17.271 10.397 25.72 3.773 8.508 7.514 17.054 10.281 25.954 2.688 8.66 3.799 17.545 4.213 26.581.232 4.958.989 9.822 1.598 14.739a421.871 421.871 0 00-3.603-5.14 79.721 79.721 0 01-.692-.969 71.32 71.32 0 01-1.998-5.059c-1.694-4.764-3.213-9.592-4.652-14.437-1.504-5.049-2.928-10.13-4.124-15.265-1.141-4.906-3.368-9.404-5.401-13.978-2.385-5.381-4.871-10.732-7.693-15.9-.436-.799-1.772-.323-1.353.534 2.316 4.698 4.508 9.445 6.639 14.231 2.087 4.686 4.42 9.311 5.828 14.259.699 2.454 1.211 4.966 1.874 7.434a370.52 370.52 0 002.175 7.718 321.772 321.772 0 004.705 14.769c.053.148.106.295.153.44a337.32 337.32 0 00-3.927-5.17c-6.408-11.848-12.119-24.237-15.761-37.223zm-40.028-8.726c4.682 2.205 9.087 4.861 13.487 7.582 1.63 1.002 3.24 2.032 4.876 3.037-1.899-.334-3.818-.552-5.72-.895-4.524-.815-9.06-1.555-13.583-2.406-9.119-1.72-18.158-3.846-27.169-6.069-5.095-1.254-10.186-2.536-15.284-3.799-1.092-.27-1.334 1.467-.249 1.733 9.209 2.273 18.389 4.629 27.635 6.749a402.984 402.984 0 0014.068 2.976c4.572.873 9.164 1.601 13.741 2.446 2.212.405 4.444.663 6.653 1.059.787.144 1.679.334 2.544.365.186.162.379.326.562.494-2.273.156-4.537.544-6.667 1.232-1.773.572-3.639.736-5.471 1.025-1.833.289-3.673.546-5.523.739-7.701.797-15.506.265-23.132-.982-3.862-.637-7.682-1.521-11.384-2.779-3.978-1.348-7.847-2.979-11.729-4.564-7.613-3.112-15.569-6.212-23.857-6.793-4.559-.317-9.101.24-13.636.645-2.477.221-4.955.479-7.432.701 1.787-1.263 3.574-2.526 5.397-3.736 3.359-2.216 6.873-4.063 10.628-5.489 7.061-2.676 14.581-3.83 22.097-3.966 7.82-.144 15.693.77 23.351 2.281 8.934 1.742 17.572 4.537 25.797 8.414zm2.958-20.953c-1.333-3.302-2.436-6.695-3.459-10.104-1.008-3.344-1.888-6.727-2.485-10.172a60.32 60.32 0 01-.889-10.49c.014-3.552.241-7.108.236-10.668-.011-3.564-.25-7.124-.137-10.685.116-3.67.597-7.32.791-10.985.217-4.102.147-8.154-.435-12.222-.239-1.674-.505-3.338-.729-5.013a176.56 176.56 0 013.375 5.665c2.125 3.756 3.923 7.656 5.52 11.667 1.68 4.223 3.23 8.492 4.939 12.699 1.671 4.109 3.392 8.203 4.842 12.4 1.392 4.024 2.576 8.142 3.244 12.35.685 4.305.613 8.632.252 12.965a102.926 102.926 0 01-2.035 13.423c-.924 4.265-2.159 8.571-2.461 12.937a19.33 19.33 0 00-.02 2.068c-1.289-2.292-2.437-4.655-3.365-7.12-1.524-4.06-2.264-8.322-2.77-12.615-.552-4.679-.636-9.353-.512-14.053.117-4.565.158-9.089-.527-13.613-.781-5.16-2.12-10.218-3.09-15.35-.17-.89-1.541-.752-1.414.17.657 4.688 1.785 9.287 2.561 13.954.777 4.667.895 9.297.777 14.015-.114 4.66-.111 9.285.385 13.924.46 4.383 1.157 8.795 2.591 12.977a42.962 42.962 0 001.233 3.178 71.31 71.31 0 01-1.694-2.321c-1.959-2.804-3.444-5.827-4.724-8.981zm-34.216-42.93c2.067 3.064 3.734 6.29 5.309 9.624.197.424.421.836.635 1.252-8.814-8.403-17.691-16.813-27.516-24.02-2.921-2.143-5.904-4.196-8.88-6.246-.772-.534-1.691.57-.924 1.147 5.105 3.826 10.331 7.493 15.284 11.517 5.018 4.076 9.77 8.512 14.502 12.91a872.931 872.931 0 017.906 7.459c-.102.05-.198.12-.287.205-5.596-2.646-10.993-5.682-15.982-9.356-5.36-3.945-10.326-8.43-15.242-12.909-4.933-4.492-9.826-9.042-14.9-13.376-2.56-2.184-5.169-4.287-7.959-6.176-2.809-1.896-5.732-3.614-8.687-5.274-2.631-1.481-5.223-3.034-7.844-4.519.705.146 1.411.291 2.111.434 3.625.762 7.263 1.375 10.81 2.448 7.069 2.142 13.773 5.306 20.322 8.675 6.264 3.216 12.372 6.774 17.836 11.241 5.2 4.265 9.747 9.39 13.506 14.964zm27.747-97.166c.724 1.048.79 2.632.122 3.831-.781 1.392-2.183 2.375-3.483 3.226a118.99 118.99 0 01-5.027 3.068c-3.36 1.95-6.817 3.734-10.387 5.271-4.248 1.836-8.624 3.426-12.96 5.04-2.237.833-4.474 1.665-6.739 2.426-.766.262-1.542.496-2.322.723 1.23-1.498 2.448-3.001 3.71-4.47 2.619-3.059 5.504-5.803 8.569-8.403 2.148-1.825 4.322-3.623 6.483-5.442 2.167-1.715 4.379-3.365 6.675-4.905a64.489 64.489 0 013.264-2.015c.236-.088.475-.182.715-.261 2.636-.857 5.819-.985 8.346-.142 1.303.441 2.304.987 3.034 2.053zm-50.826-32.19s.006.002 0 0c-.037.05.011.041.031.028.091.061.185.132.27.205.585.526.91 1.328 1.189 2.05.657 1.724 1.101 3.517 1.449 5.327a54.574 54.574 0 01.913 11.85c-.126 4.113-.529 8.208-.854 12.308-.406 5.011-.891 10.017-1.291 15.03a341.12 341.12 0 00-.258 3.543 191.352 191.352 0 00-1.229-4.57c-1.119-3.928-2.263-7.852-3.073-11.851-.83-4.074-1.21-8.201-1.412-12.354-.193-4.105-.098-8.231.605-12.291.321-1.85.737-3.7 1.39-5.471.347-.275.546-.768.483-1.228.105-.24.222-.476.341-.718a13.764 13.764 0 01.37-.683c.162-.252.332-.493.522-.727a5.5 5.5 0 01.227-.253c.001.015.157-.108.267-.192.006.002.015-.001.017-.007-.036.05-.047.075.043.004zm-4.359 44.66a136.77 136.77 0 002.352 6.57 418.456 418.456 0 00-4.12-5.688c-2.703-3.655-5.591-7.156-8.531-10.621-1.771-2.597-3.516-5.205-5.195-7.865-2.131-3.37-4.051-6.788-4.942-10.72a27.634 27.634 0 01-.681-5.578c-.032-1.643.029-3.62.939-5.007 1.941-2.964 5.902 1.187 7.178 2.968 2.197 3.068 3.714 6.655 5.026 10.175 1.441 3.863 2.587 7.831 3.753 11.787 1.367 4.674 2.701 9.356 4.221 13.98zm10.36 3.214c.809-4.572 1.584-9.151 2.606-13.674a122.398 122.398 0 019.211-26.306c1.069-2.206 2.197-4.394 3.601-6.41.693-1.004 1.473-1.905 2.295-2.802.393-.431.771-.913 1.224-1.266.422-.33.901-.606 1.362-.89.462-.034.607.154.925.754.472.903.682 1.919.777 2.929.202 2.098-.09 4.268-.468 6.334-.862 4.71-2.558 9.285-4.251 13.75-1.746 4.605-3.704 9.125-5.822 13.575-2.064 4.326-4.107 8.72-6.81 12.696-1.567 2.306-3.2 4.545-4.585 6.973-.488.852-.944 1.732-1.46 2.564.064-.449.13-.904.203-1.357.356-2.303.79-4.58 1.192-6.87zm38.762-40.876c.868-.327 2.147-.842 3.089-.616.826.205 1.546 1.01 1.869 1.766.322.757.293 1.566.181 2.413-.16 1.229-.427 2.448-.734 3.643-.606 2.37-1.504 4.805-2.92 6.816-1.658 2.346-3.974 4.017-6.403 5.544-6.504 1.53-11.435 6.738-16.478 10.906-2.261 1.864-4.518 3.752-6.67 5.736 1.359-2.52 2.601-5.106 3.84-7.685a181.745 181.745 0 006.593-15.55c.826-.316 1.412-.971 2.006-1.682.795-.953 1.713-1.75 2.661-2.548 2.1-1.78 4.247-3.465 6.456-5.11 2.03-1.501 4.138-2.727 6.51-3.633zM207.162-87.8c1.422-3.792 3.601-8.853 7.95-9.81 2.13-.467 4.512-.165 6.391.99 1.692 1.043 2.645 2.61 3.226 4.506 1.253 4.11.521 9.215-.954 13.262-1.521 4.174-3.966 7.858-6.489 11.486.33-1.213.627-2.434.863-3.667.45-2.3.718-4.685.603-7.031-.107-2.197-.722-4.776-2.361-6.347-.78-.75-1.804-1.107-2.88-1.076-1.307.04-2.662.934-3.666 1.744-.927.75-1.737 1.82-2.527 2.71a19.357 19.357 0 00-1.583 2.092c.012-.23.021-.453.03-.676.124-2.83.395-5.508 1.397-8.183zm-21.512-.124c.364-3.752 1.187-8.274 4.066-10.984 1.115-1.05 2.664-1.968 4.219-1.989 1.675-.027 2.802 1.138 3.584 2.557.94 1.714 1.489 3.736 1.959 5.62.516 2.082.843 4.227 1.032 6.37.417 4.886-.028 9.784-.215 14.663-.02.6.206 1.176.672 1.503a126.59 126.59 0 00-2.293 5.291c-1.776 4.386-3.26 8.877-4.569 13.422.518-6.767.771-13.533-.565-20.248-.402-2.023-.896-4.073-1.671-5.995-.728-1.813-1.98-3.803-4.045-4.21a3.434 3.434 0 00-1.995.175c-.134-2.068-.379-4.098-.179-6.175zm-21.504 8.296c-.156-1.646-.183-3.286-.144-4.942.067-2.781.134-6.575 2.364-8.62 1.722-1.585 4.459-1.107 6.397-.257 2.689 1.177 4.889 3.212 6.426 5.707 1.81 2.93 2.242 6.266 2.621 9.622.041.378.2.652.413.855-.508 1.202-.875 2.4-1.126 3.296-1.23 4.396-1.656 8.929-1.665 13.482-.004 1.172.019 2.348.055 3.53-1.612-4.986-3.543-9.86-6.458-14.159-1.126-1.656-2.486-3.245-4.173-4.353-1.278-.834-2.838-1.49-4.389-1.512-.005-.04-.017-.08-.022-.12a52.402 52.402 0 01-.299-2.53zm-15.718 13.05c-1.593-.818-3.382-1.574-5.191-1.825-.002-.03.002-.057.001-.088-.001-.704-.062-1.406-.057-2.108.006-1.413.051-2.832.145-4.244.164-2.548.417-5.204 1.497-7.552.442-.967 1.032-1.936 1.901-2.586.726-.542 1.629-.612 2.509-.53 2.331.214 4.964.882 6.733 2.473 1.069.963 1.914 2.204 2.734 3.383a57.166 57.166 0 012.423 3.863c-2.434 2.075-2.588 6.322-2.418 9.25a28.999 28.999 0 002.65 10.516c-.276-.275-.535-.556-.811-.83-3.648-3.64-7.495-7.36-12.116-9.722zm15.594 37.488c3.793 2.58 7.772 4.803 11.863 6.867 2.022 1.027 4.042 2.06 6.092 3.039.88.419 1.76.838 2.661 1.208-.074.122-.149.243-.221.374-.011.01-.019.028-.031.038-.226-.407-.622-.726-1.234-.801-7.839-1.01-15.592-2.958-22.932-5.907-6.992-2.806-13.793-6.453-19.266-11.709-1.055-1.01-2.113-2.166-2.76-3.49a8.779 8.779 0 01-.646-1.682c-.07-.294-.134-.887-.102-1.181 0 0 .038-.138.055-.226l.005-.012c-.008.018.028-.047.061-.106.008-.004.011-.01.02-.013.504-.148 1.042-.156 1.694-.056 1.693.252 3.29.91 4.875 1.526 7.273 2.817 13.479 7.783 19.866 12.13zm21.247 7.037c.301.417.603.835.908 1.246-.242-.134-.477-.266-.722-.395-1.952-1.054-3.929-2.031-5.819-3.212-4.282-2.67-8.198-5.928-12.358-8.793-4.195-2.888-8.164-6.008-12.099-9.238-1.938-1.591-3.9-3.163-5.84-4.748-1.768-1.444-3.526-2.927-5.037-4.641-2.507-2.844-5.027-6.515-5.067-10.465-.011-.768.055-1.745.498-2.41.36-.541 1.145-.78 1.773-.844 1.816-.2 3.757.76 5.328 1.561 4.324 2.203 7.93 5.738 11.327 9.145 3.48 3.487 6.75 7.169 9.963 10.899a639.736 639.736 0 013.449 4.03 268.316 268.316 0 006.898 9.524c1.534 2.016 3.096 4.017 4.742 5.943.674.792 1.375 1.588 2.056 2.398zm18.944 5.406a41.61 41.61 0 01-2.554-1.016c.86-.293 1.707-.607 2.549-.96 2.924-1.231 5.767-2.43 8.817-3.313 3.19-.917 6.414-1.71 9.608-2.602 3.01-.841 5.998-1.765 9.083-2.324.62-.112 1.308-.297 1.941-.286.494.01.693.243.937.525-.077-.092.011.093.036.118.009.063.022.135.023.15.001.015-.007.033-.012.06-.015.119-.038.24-.059.356-.078.414-.321 1.042-.563 1.597-1.097 2.473-3.064 4.384-5.304 5.846-4.48 2.924-10.094 4.144-15.389 3.771-3.102-.211-6.181-.882-9.113-1.922z" fill="#A52E44"/></svg>