<svg width="23" height="23" fill="none" xmlns="http://www.w3.org/2000/svg"><path fill-rule="evenodd" clip-rule="evenodd" d="M22.995 10.92C22.843 4.864 17.85 0 11.71 0 5.64 0 .694 4.752.425 10.713a11.082 11.082 0 001.61 6.275L0 23l6.252-1.989a11.344 11.344 0 005.458 1.397c6.237 0 11.29-5.015 11.29-11.204 0-.096 0-.192-.005-.283zM11.71 20.623a9.483 9.483 0 01-5.225-1.56l-3.645 1.16 1.18-3.497a9.337 9.337 0 01-1.808-5.521c0-.309.016-.612.051-.916.466-4.767 4.526-8.502 9.447-8.502 4.982 0 9.083 3.831 9.462 8.684.02.243.03.486.03.734 0 5.192-4.262 9.418-9.492 9.418z" fill="#F8F8F8"/><path fill-rule="evenodd" clip-rule="evenodd" d="M16.947 13.425c-.278-.137-1.64-.805-1.893-.896-.254-.091-.44-.137-.623.142-.188.273-.719.89-.876 1.067-.167.188-.324.208-.602.071-.279-.136-1.17-.42-2.228-1.361-.82-.724-1.382-1.625-1.54-1.898-.156-.273-.014-.425.122-.561.127-.127.274-.324.42-.481.036-.046.066-.091.097-.132.066-.101.111-.197.177-.329.096-.182.046-.344-.02-.48-.071-.137-.623-1.488-.856-2.04-.228-.546-.46-.455-.628-.455-.157 0-.344-.026-.526-.026-.188 0-.486.071-.74.345-.252.273-.966.94-.966 2.292 0 .319.055.632.141.936.279.967.881 1.766.988 1.903.136.177 1.913 3.041 4.728 4.15 2.815 1.093 2.815.728 3.321.678.512-.04 1.64-.658 1.869-1.306.232-.638.232-1.19.162-1.306-.066-.106-.254-.177-.527-.313z" fill="#F8F8F8"/></svg>