<svg width="140" height="75" fill="none" xmlns="http://www.w3.org/2000/svg"><path d="M4.29 51.47c-.378 0-.696-.097-.954-.294-.238-.215-.357-.5-.357-.852V29.647c0-.333.109-.608.327-.823.219-.216.497-.324.834-.324h7.239c1.191 0 2.264.255 3.217.765.973.49 1.737 1.166 2.293 2.03.576.862.864 1.862.864 3 0 1.058-.288 2-.864 2.823A5.55 5.55 0 0114.626 39c1.33.353 2.402 1.02 3.217 2 .814.96 1.22 2.186 1.22 3.676 0 1.334-.307 2.51-.923 3.53-.615 1.02-1.47 1.823-2.561 2.412-1.073.568-2.304.853-3.694.853H4.29zm1.012-2.205h6.583c.953 0 1.797-.187 2.532-.56a4.2 4.2 0 001.728-1.587c.417-.687.625-1.5.625-2.442 0-.882-.208-1.647-.625-2.294a4.068 4.068 0 00-1.728-1.53c-.735-.372-1.579-.558-2.532-.558H5.302v8.97zm0-11.177h6.077c1.191 0 2.174-.333 2.949-1 .774-.666 1.161-1.598 1.161-2.794 0-1.176-.387-2.069-1.161-2.676-.775-.608-1.758-.912-2.95-.912H5.303v7.382zm27.652 13.853c-1.807 0-3.416-.343-4.826-1.03-1.39-.686-2.482-1.636-3.276-2.852-.775-1.216-1.162-2.608-1.162-4.177V29.647c0-.333.11-.608.328-.823.218-.216.496-.324.834-.324.337 0 .616.108.834.323.218.216.328.49.328.824v14.235c0 1.157.288 2.177.863 3.06.596.882 1.42 1.578 2.473 2.087 1.052.49 2.254.736 3.604.736 1.33 0 2.512-.245 3.545-.736 1.032-.51 1.837-1.206 2.412-2.088.596-.882.894-1.902.894-3.059V29.647c0-.333.11-.608.328-.823.218-.216.496-.324.834-.324.357 0 .635.108.834.323.218.216.328.49.328.824v14.235c0 1.569-.398 2.961-1.192 4.177-.774 1.216-1.857 2.166-3.247 2.853-1.37.686-2.949 1.03-4.736 1.03zm21.904-.47c-.318 0-.596-.108-.834-.324a1.172 1.172 0 01-.328-.823V28.5h2.323v21.824c0 .313-.109.588-.327.823a1.138 1.138 0 01-.834.324zm-8.222-20.883c-.318 0-.576-.098-.774-.294a.99.99 0 01-.298-.735c0-.314.1-.569.298-.765.198-.196.456-.294.774-.294H63.11c.317 0 .575.098.774.294.199.196.298.451.298.765 0 .294-.1.54-.298.735-.199.196-.457.294-.774.294H46.636zm30.248 21.177c-1.727 0-3.316-.294-4.766-.883a11.45 11.45 0 01-3.783-2.47 11.515 11.515 0 01-2.472-3.736c-.576-1.43-.864-3-.864-4.705 0-1.687.288-3.246.864-4.677a11.514 11.514 0 012.472-3.735 11.45 11.45 0 013.783-2.47c1.45-.589 3.039-.883 4.766-.883 1.708 0 3.287.294 4.736.882a11.448 11.448 0 013.783 2.47 10.91 10.91 0 012.473 3.736c.596 1.431.893 2.99.893 4.677 0 1.706-.297 3.274-.893 4.706a10.91 10.91 0 01-2.473 3.735 11.447 11.447 0 01-3.783 2.47c-1.45.589-3.028.883-4.736.883zm0-2.177c1.37 0 2.641-.235 3.813-.706a9.239 9.239 0 003.038-2.03 9.383 9.383 0 002.026-3.058c.476-1.176.715-2.45.715-3.823 0-1.353-.239-2.608-.715-3.765a8.989 8.989 0 00-2.026-3.059 8.67 8.67 0 00-3.038-2.03c-1.172-.49-2.443-.735-3.813-.735-1.39 0-2.67.245-3.842.736a8.978 8.978 0 00-3.068 2.03 9.214 9.214 0 00-1.996 3.058c-.477 1.157-.715 2.412-.715 3.765 0 1.372.238 2.647.715 3.823a9.63 9.63 0 001.996 3.059 9.584 9.584 0 003.068 2.03c1.171.47 2.452.705 3.842.705zm17.84 1.883c-.338 0-.616-.108-.834-.324a1.108 1.108 0 01-.328-.823V29.647c0-.333.11-.608.328-.823.218-.216.496-.324.834-.324.357 0 .655.137.893.412l14.239 18.47V29.647c0-.333.109-.608.327-.823a1.14 1.14 0 01.834-.324c.318 0 .586.108.805.323.238.216.357.49.357.824v20.677c0 .333-.119.607-.357.823a1.103 1.103 0 01-.805.324c-.158 0-.317-.03-.476-.089a.817.817 0 01-.387-.294l-14.269-18.47v17.706c0 .333-.119.607-.357.823a1.1 1.1 0 01-.804.324z" fill="#fff"/><path d="M104.503 37.662c.598-.698 1.329-1.297 1.895-2.03.398-.516.726-.975 1.219-1.405.258-.227.588-.115.234-.51-.121-.136-.35-.163-.552-.223-.398.067-.789.154-1.139.305-.937.401-1.728 1.082-2.532 1.69-1.342 1.016-2.698 2.079-4.163 2.918-2.205 1.262-4.69 2.216-7.24 2.48-2.507.258-5.235-.006-7.464-1.26-1.069-.602-1.735-1.46-2.49-2.394-.327-.401-.678-.763-.872-1.246-.142-.352-.3-.62-.507-.827-1.01.694.671 3.484 1.058 4.099 1.133 1.8 3.525 3.227 5.572 3.782.979.265 2.072.113 3.063.034 1.283-.102 2.532-.16 3.806-.396 2.56-.476 4.87-1.448 7.186-2.6 1.178-.585 2.075-1.423 2.926-2.417zm-2.872-10.845a7.765 7.765 0 01-2.767.198l.749.342c2.013.918 4.007 1.975 6.174 2.28.478-.714.72-1.552.219-2.375-.471-.773-1.501-.787-2.126-1.39-.724.389-1.466.735-2.249.945z" fill="#A52E44"/><path d="M84.26 38.916c2.453 1.688 5.76 2.105 8.661 1.635 3.078-.498 5.814-1.82 8.28-3.685 1.323-1 2.615-2.214 4.082-3.008.622-.337 1.234-.478 1.868-.55.519-.446.936-.591 1.625-.69.74-.104 1.058-.34.371-.846-.842-.62-2.061-1.498-3.121-1.845-1.525-.033-2.834-.577-4.408-1.229-2.785-1.152-5.558-2.8-8.567-3.305-3.114-.524-5.96.085-8.529 1.913-1.255.893-2.381 1.895-3.24 3.177-.303.454-.58.924-.855 1.396.011.89.154 1.785.442 2.647.025.074.055.149.083.223.28.206.499.493.668.908.453 1.112 1.649 2.577 2.64 3.259z" fill="#A52E44"/><path d="M91.239 24.709c2.4.098 4.487.898 6.593 1.838 1.421.114 2.878.264 4.247-.23a28.316 28.316 0 002.226-.94c.349-.355.674-.829.913-1.14.311-.402.754-.938.911-1.423-.882.244-1.729.594-2.632.74-1.138.186-2.317.213-3.467.24a29.167 29.167 0 01-5.892-.493c-2.901-.535-6.156-.48-8.871.739-2.83 1.27-4.53 4.009-4.8 6.919.976-1.56 2.167-2.95 3.768-4.038 2.103-1.429 4.412-2.319 7.004-2.212z" fill="#A52E44"/><path d="M43.954 45.694c3.788-.17 7.561.231 11.273-.72 3.612-.926 7.143-2.166 10.77-3.038 2.325-.559 4.862-.912 7.254-.517 1.14.19 3.102.78 2.41 2.331-.514 1.155-1.461 1.53-2.46 2.222-1.539 1.064-1.131 2.402-1.591 3.935-.322 1.07-1.59 1.577-2.524 1.987-1.458.64-2.649 1.513-3.659 2.683 1.523-1.048 2.973-1.992 4.935-1.829.695.059 1.489.356 2.084-.14.63-.524.563-1.831.603-2.546.092-1.67.757-2.583 2.115-3.586 1.697-1.254 2.143-2.809.974-4.66-2.183-3.457-8.13-2.599-11.436-1.808-4.913 1.176-9.551 3.489-14.698 3.309 2.24-1.225 4.833-1.772 7.114-2.944 2.274-1.17 4.438-2.533 6.013-4.564.81-1.046 1.523-2.12 2.521-3.011 1.196-1.067 2.621-1.87 4.035-2.617 2.332-1.23 4.633-2.366 6.77-3.92 3.273-2.377 6.418-5.387 7.554-9.354.592-2.069.416-4.33.678-6.453.21-1.698.743-3.186 1.69-4.467a53.399 53.399 0 011.961-1.54c.16-.12-.025-.367-.183-.246l-.134.1h-.015c0-.014-.014-.026-.027-.016-.236.18-.458.367-.672.559-2.018 1.541-3.965 3.174-4.995 5.557-.512 1.184-.556 2.537-.71 3.797-.209 1.695-.822 3.163-1.905 4.495-1.845 2.271-4.76 3.503-7.43 4.542-3.08 1.197-6.203 2.28-9.26 3.538-3.31 1.36-6.528 2.95-9.436 5.033-2.927 2.096-5.071 4.992-7.823 7.28-2.738 2.275-5.92 3.963-8.999 5.748-2.828 1.64-5.993 2.692-8.736 4.462-2.804 1.81-5.148 4.274-7.934 6.12-1.283.85-2.673 1.352-4.13 1.816-1.002.32-2.1.56-3.017 1.086-.284.162-.393.626-.11.85.653.517 2.278-.279 2.859-.521 1.353-.566 2.733-1.13 4.017-1.835 1.824-1.003 3.554-2.159 5.39-3.14.54-.289 1.091-.543 1.651-.77 2.122-1.816 4.446-3.38 7.002-4.56 3.194-1.476 6.672-2.49 10.211-2.648z" fill="#A52E44"/><path d="M68.98 51.619c.849-.37 2.066-.812 2.367-1.79.203-.662.146-1.333.288-2 .251-1.178.952-1.795 1.973-2.386 1.028-.595 3.126-2.452 1.179-3.357-2.139-.995-5.215-.686-7.447-.225-3.783.78-7.443 2.097-11.17 3.092-1.724.46-3.445.828-5.237.882-1.746.052-3.491 0-5.237.023-6.97.095-13.258 2.72-18.616 6.907 2.857-1.092 5.943-1.424 9.017-1.165 3.212.273 6.319 1.405 9.574 1.046 3.58-.396 6.72-2.663 9.992-3.98 3.463-1.393 7.003-2.597 10.571-3.7 1.597-.495 3.232-1.082 4.89-1.335 1.158-.178.822.786.479 1.446-.508.975-1.368 1.844-2.114 2.645-2.703 2.904-5.689 5.752-9.298 7.509-1.737.846-3.242.279-4.922-.37-1.242-.48-2.436-.336-3.728-.131-3.905.618-7.53 2.35-11.067 4.014-.183.086-.08.368.113.295 2.937-1.125 5.803-2.672 9.018-2.785 2.947-.103 4.973 2.528 7.935 2.206 2.49-.272 4.993-1.892 7.081-3.327.275-.359.564-.71.871-1.046 1.02-1.116 2.1-1.863 3.487-2.468zM53.83 42.11c-.717.257-1.447.519-2.157.816 1.889-.125 3.734-.55 5.543-1.07a83.31 83.31 0 014.47-1.69c4.194-1.43 8.524-2.41 12.688-3.934 1.96-.716 3.985-1.391 6.041-1.948a8.887 8.887 0 01-.217-.925 79.374 79.374 0 00-5.011 1.174c-4.434 1.168-8.914 2.213-13.323 3.462-.18.05-.358.104-.536.158-1.305 1.063-2.728 1.867-4.04 2.542-1.113.571-2.305 1-3.458 1.414z" fill="#A52E44"/><path d="M54.858 51.47a1.2 1.2 0 01-.834-.323 1.172 1.172 0 01-.328-.823V28.5h2.323v21.824c0 .313-.109.588-.327.823a1.138 1.138 0 01-.834.324zm-8.222-20.882c-.318 0-.576-.098-.774-.294a.99.99 0 01-.298-.735c0-.314.1-.569.298-.765.198-.196.456-.294.774-.294H63.11c.317 0 .575.098.774.294.199.196.298.451.298.765 0 .294-.1.54-.298.735-.199.196-.457.294-.774.294H46.636z" fill="#fff"/><mask id="a" style="mask-type:luminance" maskUnits="userSpaceOnUse" x="70" y="23" width="27" height="23"><path d="M96.287 23.809H70.968v22.059h25.32v-22.06z" fill="#fff"/></mask><g mask="url(#a)"><path d="M76.896 51.78c-1.728 0-3.317-.295-4.766-.883a11.449 11.449 0 01-3.783-2.47 11.517 11.517 0 01-2.473-3.736c-.575-1.431-.863-3-.863-4.706 0-1.686.288-3.245.863-4.676a11.516 11.516 0 012.473-3.735 11.449 11.449 0 013.783-2.471c1.45-.588 3.038-.882 4.766-.882 1.708 0 3.286.294 4.736.882a11.45 11.45 0 013.783 2.47 10.911 10.911 0 012.472 3.736c.596 1.431.894 2.99.894 4.676 0 1.706-.298 3.275-.894 4.706a10.912 10.912 0 01-2.472 3.735 11.45 11.45 0 01-3.783 2.471c-1.45.588-3.028.882-4.736.882zm0-2.177c1.37 0 2.641-.235 3.813-.706a9.24 9.24 0 003.038-2.03 9.383 9.383 0 002.025-3.058c.477-1.177.715-2.451.715-3.824 0-1.353-.238-2.608-.715-3.764a8.988 8.988 0 00-2.025-3.06 8.672 8.672 0 00-3.038-2.029c-1.172-.49-2.443-.735-3.813-.735-1.39 0-2.671.245-3.843.735a8.979 8.979 0 00-3.068 2.03 9.212 9.212 0 00-1.996 3.059c-.476 1.157-.715 2.411-.715 3.764 0 1.373.239 2.647.715 3.824a9.628 9.628 0 001.996 3.059 9.583 9.583 0 003.068 2.03c1.172.47 2.453.705 3.843.705z" fill="#fff"/></g></svg>