<svg width="13" height="17" fill="none" xmlns="http://www.w3.org/2000/svg"><path d="M3.25 5.571c0-.769.317-1.425.952-1.97.635-.543 1.4-.815 2.298-.815.897 0 1.663.272 2.298.816.635.544.952 1.2.952 1.97 0 .768-.317 1.425-.952 1.969s-1.4.816-2.298.816c-.897 0-1.663-.272-2.298-.816-.635-.544-.952-1.2-.952-1.97zm-3.25 0c0 .791.14 1.44.419 1.948l4.621 8.423c.135.24.336.428.603.566.267.137.552.206.857.206.305 0 .59-.069.857-.206.267-.138.463-.327.59-.566l4.634-8.423c.28-.508.419-1.157.419-1.948 0-1.538-.635-2.85-1.904-3.939C9.826.544 8.294 0 6.5 0S3.174.544 1.904 1.632C.634 2.72 0 4.033 0 5.572z" fill="#fff"/></svg>