<svg width="24" height="22" fill="none" xmlns="http://www.w3.org/2000/svg"><path d="M15.688 0H8.325C1.6 0 0 1.467 0 7.62v6.749C0 20.533 1.588 22 8.312 22h7.363C22.4 22 24 20.545 24 14.38V7.631C24 1.467 22.413 0 15.687 0zm3.687 15.698h-1.75c-.663 0-.863-.493-2.05-1.581-1.037-.917-1.475-1.032-1.737-1.032-.363 0-.463.092-.463.55v1.444c0 .39-.137.619-1.25.619a7.279 7.279 0 01-3.054-.877 6.59 6.59 0 01-2.284-2.056 12.364 12.364 0 01-2.762-5.317c0-.24.1-.458.6-.458h1.75c.45 0 .613.183.787.607.85 2.292 2.3 4.285 2.888 4.285.225 0 .325-.091.325-.607v-2.36c-.075-1.077-.7-1.17-.7-1.559a.385.385 0 01.144-.267.457.457 0 01.306-.1h2.75c.375 0 .5.172.5.585v3.185c0 .344.162.459.275.459.225 0 .4-.115.813-.493a13.05 13.05 0 002.15-3.277.704.704 0 01.297-.347.807.807 0 01.465-.111h1.75c.525 0 .637.24.525.584a19.704 19.704 0 01-2.35 3.701c-.188.264-.262.401 0 .71.175.241.787.71 1.2 1.158a7.187 7.187 0 011.475 1.879c.15.447-.1.676-.6.676z" fill="#fff"/></svg>