<svg width="23" height="23" fill="none" xmlns="http://www.w3.org/2000/svg"><path d="M11.5 5.518c-3.246 0-5.935 2.644-5.935 5.936a5.917 5.917 0 005.935 5.935c3.292 0 5.936-2.69 5.936-5.935 0-3.246-2.69-5.936-5.936-5.936zm0 9.738a3.82 3.82 0 01-3.802-3.802A3.82 3.82 0 0111.5 7.65a3.82 3.82 0 013.802 3.803 3.82 3.82 0 01-3.802 3.802zm6.162-8.527a1.345 1.345 0 100-2.69 1.345 1.345 0 000 2.69z" fill="#fff"/><path d="M21.145 1.901C19.94.65 18.224 0 16.276 0H6.724C2.69 0 0 2.69 0 6.724v9.506c0 1.994.65 3.71 1.948 4.962C3.2 22.397 4.868 23 6.77 23h9.46c1.994 0 3.663-.65 4.869-1.808C22.35 19.986 23 18.27 23 16.276V6.724c0-1.948-.65-3.617-1.855-4.823zm-.185 14.375c0 1.438-.51 2.597-1.345 3.385-.835.789-1.994 1.206-3.385 1.206H6.77c-1.391 0-2.55-.417-3.385-1.206-.835-.834-1.252-1.994-1.252-3.431V6.724c0-1.391.417-2.55 1.252-3.385.788-.789 1.994-1.206 3.385-1.206h9.553c1.39 0 2.55.417 3.385 1.252.788.835 1.252 1.994 1.252 3.339v9.552z" fill="#fff"/></svg>