<svg width="41" height="36" fill="none" xmlns="http://www.w3.org/2000/svg"><path d="M1.58 31.824v0a.58.58 0 00-.58.58V34a1 1 0 001 1h37a1 1 0 001-1v-1.176a1 1 0 00-1-1h-.325m-37.095 0V25.31m0 6.515h7.907M1.58 18.794v6.515m0-6.514h7.907m-7.907 0C.056 10.39 19.106 8.779 28.822 9.023m-11.427 9.772v6.514m0-6.514H9.487m7.908 0h21.28m-21.28 0c.607-3.285 3.743-9.837 11.427-9.772M17.395 31.824V25.31m0 6.515H9.487m7.908 0h21.28m-21.28-6.515H9.487m-7.907 0h7.907m0 0v-6.514m0 6.514v6.515m29.188-13.03v13.03m0-13.03c-.083-3.23-2.17-9.706-9.853-9.771" stroke="#fff"/><path d="M30.965 4.111a.126.126 0 00-.101-.057c-.63 0-2.117.53-2.728 2.082V4.722c.675-.083 1.221-.764 1.269-1.628.058-1.082.156-1.41.208-1.51a.208.208 0 00.01-.168.142.142 0 00-.11-.096c-.022-.002-.356-.037-.719.084l-.707-.73a.116.116 0 00-.176.002l-.683.735a1.849 1.849 0 00-.74-.091c-.048.005-.09.042-.111.096a.208.208 0 00.01.169c.052.099.15.427.208 1.509.047.863.593 1.543 1.268 1.627v1.413c-.611-1.55-2.098-2.08-2.727-2.08a.126.126 0 00-.101.057.201.201 0 00-.034.133c.272 3.074 2.013 3.906 2.998 3.913H28c.986-.007 2.727-.84 3-3.913a.201.201 0 00-.035-.133zm-1.833-1.04c-.037.685-.463 1.227-.996 1.309V2.858c0-.35.088-.628.26-.825.26-.3.66-.365.898-.376-.055.225-.12.637-.162 1.414zm-2.264 0c-.043-.777-.107-1.189-.162-1.414.237.01.638.077.899.376.17.196.258.472.258.82V4.38c-.532-.082-.958-.624-.995-1.31z" fill="#fff"/></svg>